{
    "asset" : {
        "generator" : "Khronos glTF Blender I/O v1.5.17",
        "version" : "2.0"
    },
    "scene" : 0,
    "scenes" : [
        {
            "name" : "Scene",
            "nodes" : [
                0
            ]
        }
    ],
    "nodes" : [
        {
            "mesh" : 0,
            "name" : "Cylinder",
            "scale" : [
                1,
                1,
                0.11699767410755157
            ]
        }
    ],
    "materials" : [
        {
            "doubleSided" : true,
            "name" : "moneda",
            "pbrMetallicRoughness" : {
                "baseColorFactor" : [
                    0.8000000715255737,
                    0.5222769975662231,
                    0.007771848700940609,
                    1
                ],
                "metallicFactor" : 0.6000000238418579,
                "roughnessFactor" : 0.20000000298023224
            }
        }
    ],
    "meshes" : [
        {
            "name" : "Cylinder",
            "primitives" : [
                {
                    "attributes" : {
                        "POSITION" : 0,
                        "NORMAL" : 1,
                        "TEXCOORD_0" : 2
                    },
                    "indices" : 3,
                    "material" : 0
                }
            ]
        }
    ],
    "accessors" : [
        {
            "bufferView" : 0,
            "componentType" : 5126,
            "count" : 698,
            "max" : [
                1.0569032430648804,
                1.0569030046463013,
                1.0569028854370117
            ],
            "min" : [
                -1.0569030046463013,
                -1.0569037199020386,
                -1.0569037199020386
            ],
            "type" : "VEC3"
        },
        {
            "bufferView" : 1,
            "componentType" : 5126,
            "count" : 698,
            "type" : "VEC3"
        },
        {
            "bufferView" : 2,
            "componentType" : 5126,
            "count" : 698,
            "type" : "VEC2"
        },
        {
            "bufferView" : 3,
            "componentType" : 5123,
            "count" : 1140,
            "type" : "SCALAR"
        }
    ],
    "bufferViews" : [
        {
            "buffer" : 0,
            "byteLength" : 8376,
            "byteOffset" : 0
        },
        {
            "buffer" : 0,
            "byteLength" : 8376,
            "byteOffset" : 8376
        },
        {
            "buffer" : 0,
            "byteLength" : 5584,
            "byteOffset" : 16752
        },
        {
            "buffer" : 0,
            "byteLength" : 2280,
            "byteOffset" : 22336
        }
    ],
    "buffers" : [
        {
            "byteLength" : 24616,
            "uri" : "data:application/octet-stream;base64,"
        }
    ]
}
